<svg xmlns="http://www.w3.org/2000/svg" width="474" height="40" viewBox="0 0 474 40">
  <defs>
    <style>
      .cls-1 {
        fill: #e6e6e6;
      }

      .cls-2 {
        fill: #fff;
      }
    </style>
  </defs>
  <g id="レイヤー_2" data-name="レイヤー 2">
    <g id="レイヤー_1-2" data-name="レイヤー 1">
      <g id="area_logo_1">
        <g id="area_logo_1-2" data-name="area_logo_1">
          <rect class="cls-1" width="474" height="40"/>
        </g>
        <g>
          <path class="cls-2" d="M168.87,19.74a10.63,10.63,0,0,1,3.18-7.62l1,.5a10,10,0,0,0,0,14.24l-1,.5A10.63,10.63,0,0,1,168.87,19.74Z"/>
          <path class="cls-2" d="M175.35,14.09h6.77v1.25h-5.29v4h4.49v1.25h-4.49v5.26h-1.48Z"/>
          <path class="cls-2" d="M184.18,14.09h1.49V24.56h5.12v1.26h-6.61Z"/>
          <path class="cls-2" d="M198.23,22.24h-4.29l-1.14,3.58h-1.5l4-11.73h1.65l4,11.73h-1.57Zm-.37-1.19-.56-1.79c-.43-1.33-.8-2.61-1.19-4h-.06c-.37,1.38-.75,2.64-1.17,4l-.57,1.79Z"/>
          <path class="cls-2" d="M205,15.34h-3.55V14.09h8.59v1.25H206.5V25.82H205Z"/>
          <path class="cls-2" d="M221.11,22.24h-4.29l-1.14,3.58h-1.5l4-11.73h1.65l4,11.73h-1.57Zm-.37-1.19-.56-1.79c-.43-1.33-.8-2.61-1.19-4h-.06c-.37,1.38-.75,2.64-1.17,4l-.57,1.79Z"/>
          <path class="cls-2" d="M231.89,25.82l-2.85-5h-2.11v5h-1.49V14.09h3.68c2.39,0,4.1.85,4.1,3.3a3.18,3.18,0,0,1-2.66,3.29l3,5.14Zm-5-6.18h2c1.84,0,2.85-.73,2.85-2.25s-1-2.1-2.85-2.1h-2Z"/>
          <path class="cls-2" d="M235.6,14.09h6.77v1.25h-5.28V19h4.45v1.26h-4.45v4.28h5.46v1.26h-7Z"/>
          <path class="cls-2" d="M245,14.09h1.54l4.27,7.39,1.25,2.42h.08c-.08-1.18-.19-2.5-.19-3.71v-6.1h1.4V25.82h-1.52l-4.27-7.41L246.31,16h-.07c.07,1.19.18,2.44.18,3.67v6.16H245Z"/>
          <path class="cls-2" d="M261.94,22.24h-4.29l-1.14,3.58H255l4-11.73h1.65l4,11.73h-1.57Zm-.37-1.19L261,19.26c-.43-1.33-.8-2.61-1.18-4h-.07c-.37,1.38-.75,2.64-1.17,4L258,21.05Z"/>
          <path class="cls-2" d="M282,24c0,.51,0,1.74,0,1.92h-1.38c0-.11,0-.48,0-.91h-8.74c0,.41,0,.8,0,.91h-1.37c0-.19,0-1.38,0-1.94V16.11c0-.37,0-.87,0-1.25l1.43,0h8.59c.35,0,.93,0,1.41,0,0,.4,0,.85,0,1.25Zm-10.07-7.85v7.61h8.76V16.15Z"/>
          <path class="cls-2" d="M297.48,24.89c0,.58,0,1.3.06,1.56H296.1c0-.18,0-.52,0-.9h-7.82c-.66,0-1.38,0-1.81.06V24.16a16.4,16.4,0,0,0,1.77.09h7.86V16.7h-7.66c-.6,0-1.4,0-1.77.05V15.32a14.91,14.91,0,0,0,1.75.1h7.87c.4,0,.88,0,1.19,0,0,.36,0,.86,0,1.24Zm-1.06-9.74A17,17,0,0,0,295.14,13l.88-.36c.37.54,1,1.52,1.28,2.13Zm1.62-3c.38.55,1,1.51,1.31,2.12l-.9.4a17.48,17.48,0,0,0-1.29-2.15Z"/>
          <path class="cls-2" d="M305.14,19.74A10.64,10.64,0,0,1,302,27.36l-1-.5a10,10,0,0,0,0-14.24l1-.5A10.64,10.64,0,0,1,305.14,19.74Z"/>
        </g>
      </g>
    </g>
  </g>
</svg>
