<svg xmlns="http://www.w3.org/2000/svg" width="528.51" height="20" viewBox="0 0 528.51 20">
  <g id="レイヤー_2" data-name="レイヤー 2">
    <g id="レイヤー_1-2" data-name="レイヤー 1">
      <g id="area_logo_4">
        <rect x="95.01" width="41.85" height="4.2"/>
        <rect x="95.01" y="9.65" width="20.93" height="4.2"/>
        <rect x="211.22" width="28.33" height="4.2"/>
        <rect x="87.48" width="4.2" height="20"/>
        <rect x="149.88" y="15.8" width="41.85" height="4.2"/>
        <rect x="142.36" width="4.2" height="20"/>
        <rect x="276.48" y="9.69" width="4.2" height="10.31"/>
        <polygon points="244.42 9.7 254.71 19.98 248.81 19.98 242.69 13.86 208.09 13.86 201.98 19.98 196.07 19.98 206.36 9.7 244.42 9.7"/>
        <rect x="251.01" width="55.15" height="4.2"/>
        <rect width="70" height="4.2"/>
        <rect y="15.8" width="35" height="4.2"/>
        <rect x="386.15" width="28.33" height="4.2"/>
        <polygon points="419.35 9.7 429.63 19.98 423.73 19.98 417.61 13.86 383.02 13.86 376.9 19.98 371 19.98 381.28 9.7 419.35 9.7"/>
        <rect x="333.27" width="35.85" height="4.2"/>
        <rect x="333.27" y="9.65" width="35.85" height="4.2"/>
        <rect x="325.73" width="4.2" height="20"/>
        <rect x="364.94" width="4.17" height="13.85"/>
        <polygon points="468.34 9.7 478.62 19.98 472.72 19.98 466.6 13.86 468.34 9.7"/>
        <rect x="441.32" width="35.85" height="4.2"/>
        <rect x="459.25" y="9.65" width="17.92" height="4.2"/>
        <rect x="433.78" width="4.2" height="20"/>
        <rect x="473" width="4.17" height="13.85"/>
        <polygon points="518.22 9.7 528.51 19.98 522.6 19.98 512.38 9.78 518.22 9.7"/>
        <polygon points="518.22 10.28 528.51 0 522.6 0 512.38 10.2 518.22 10.28"/>
        <rect x="491.21" y="7.89" width="26.38" height="4.2"/>
        <rect x="483.67" width="4.2" height="20"/>
      </g>
    </g>
  </g>
</svg>
