<svg xmlns="http://www.w3.org/2000/svg" width="566.71" height="20" viewBox="0 0 566.71 20">
  <defs>
    <style>
      .cls-1 {
        fill: #221815;
      }
    </style>
  </defs>
  <g id="レイヤー_2" data-name="レイヤー 2">
    <g id="レイヤー_1-2" data-name="レイヤー 1">
      <g id="area_logo_3">
        <rect class="cls-1" x="94.9" y="0.01" width="41.8" height="4.19"/>
        <rect class="cls-1" x="94.9" y="9.65" width="20.9" height="4.2"/>
        <rect class="cls-1" x="210.97" y="0.01" width="28.3" height="4.19"/>
        <rect class="cls-1" x="87.38" y="0.01" width="4.19" height="19.98"/>
        <rect class="cls-1" x="149.71" y="15.79" width="41.8" height="4.19"/>
        <rect class="cls-1" x="142.19" y="0.01" width="4.19" height="19.98"/>
        <rect class="cls-1" x="276.16" y="9.69" width="4.19" height="10.29"/>
        <polygon class="cls-1" points="244.13 9.7 254.41 19.97 248.51 19.97 242.4 13.86 207.85 13.86 201.74 19.97 195.84 19.97 206.11 9.7 244.13 9.7"/>
        <rect class="cls-1" x="250.71" y="0.01" width="55.08" height="4.19"/>
        <rect class="cls-1" y="0.01" width="69.91" height="4.19"/>
        <rect class="cls-1" y="15.79" width="34.96" height="4.19"/>
        <rect class="cls-1" x="325.34" width="41.95" height="4.22"/>
        <rect class="cls-1" x="325.34" y="15.78" width="41.95" height="4.22"/>
        <rect class="cls-1" x="325.34" y="7.97" width="41.95" height="4.19"/>
        <rect class="cls-1" x="363.1" y="8.67" width="4.2" height="11.25"/>
        <rect class="cls-1" x="524.76" width="41.95" height="4.22"/>
        <rect class="cls-1" x="524.76" y="15.78" width="41.95" height="4.22"/>
        <rect class="cls-1" x="524.76" y="7.97" width="20.98" height="4.19"/>
        <rect class="cls-1" x="380.42" y="0.01" width="35.81" height="4.19"/>
        <rect class="cls-1" x="380.42" y="9.65" width="35.81" height="4.2"/>
        <rect class="cls-1" x="372.88" y="0.01" width="4.2" height="19.98"/>
        <rect class="cls-1" x="412.05" y="0.01" width="4.17" height="13.83"/>
        <rect class="cls-1" x="484.71" y="0.01" width="35.06" height="4.19"/>
        <rect class="cls-1" x="484.71" y="15.79" width="35.06" height="4.19"/>
        <rect class="cls-1" x="477.18" y="0.01" width="4.2" height="19.98"/>
        <rect class="cls-1" x="431.3" y="0.01" width="28.3" height="4.19"/>
        <polygon class="cls-1" points="464.45 9.7 474.73 19.97 468.83 19.97 462.72 13.86 428.17 13.86 422.06 19.97 416.16 19.97 426.44 9.7 464.45 9.7"/>
      </g>
    </g>
  </g>
</svg>
