<svg xmlns="http://www.w3.org/2000/svg" width="378.98" height="40" viewBox="0 0 378.98 40">
  <g id="レイヤー_2" data-name="レイヤー 2">
    <g id="レイヤー_1-2" data-name="レイヤー 1">
      <g id="area_logo_2">
        <rect x="93.83" y="13.14" width="41.33" height="4.15"/>
        <rect x="93.83" y="22.67" width="20.66" height="4.15"/>
        <rect x="208.59" y="13.14" width="27.98" height="4.15"/>
        <rect x="86.39" y="13.14" width="4.15" height="19.75"/>
        <rect x="148.01" y="28.74" width="41.33" height="4.15"/>
        <rect x="140.58" y="13.14" width="4.15" height="19.75"/>
        <rect x="273.03" y="22.71" width="4.15" height="10.18"/>
        <polygon points="241.37 22.71 251.53 32.87 245.7 32.87 239.66 26.83 205.5 26.83 199.45 32.87 193.62 32.87 203.78 22.71 241.37 22.71"/>
        <rect x="247.88" y="13.14" width="54.46" height="4.15"/>
        <rect y="13.14" width="69.12" height="4.15"/>
        <rect y="28.74" width="34.56" height="4.15"/>
        <polygon points="332.07 22.71 315.23 40 321.02 40 333.82 26.86 359.97 26.86 373.11 40 378.98 40 361.69 22.71 332.07 22.71"/>
        <polygon points="361.69 17.29 378.98 0 373.11 0 359.97 13.14 333.82 13.14 321.02 0 315.23 0 332.07 17.29 361.69 17.29"/>
      </g>
    </g>
  </g>
</svg>
