<svg xmlns="http://www.w3.org/2000/svg" xmlns:xlink="http://www.w3.org/1999/xlink" width="512" height="62.1" viewBox="0 0 512 62.1">
  <defs>
    <symbol id="新規シンボル" data-name="新規シンボル" viewBox="0 0 313.18 37.99">
      <rect x="97.19" width="42.81" height="4.27"/>
      <rect x="97.19" y="9.9" width="21.4" height="4.27"/>
      <rect x="216.07" width="28.98" height="4.27"/>
      <rect x="89.5" width="4.27" height="20.46"/>
      <rect x="153.32" y="16.19" width="42.81" height="4.27"/>
      <rect x="145.63" width="4.27" height="20.46"/>
      <rect x="282.83" y="9.92" width="4.27" height="10.54"/>
      <polygon points="250.02 9.92 260.55 20.44 254.5 20.44 248.25 14.18 212.86 14.18 206.6 20.44 200.56 20.44 211.09 9.92 250.02 9.92"/>
      <rect x="256.76" width="56.41" height="4.27"/>
      <rect width="71.6" height="4.3"/>
      <rect y="16.16" width="35.8" height="4.3"/>
      <polygon points="89.4 29.76 90.82 29.76 90.82 33.12 94.68 33.12 94.68 29.76 96.1 29.76 96.1 37.85 94.68 37.85 94.68 34.44 90.82 34.44 90.82 37.85 89.4 37.85 89.4 29.76"/>
      <path d="M119.72,29.7H121l3.56,8.15h-1.5l-.82-2h-3.83l-.83,2h-1.45Zm2,4.94-1.4-3.24L119,34.64Z"/>
      <path d="M143.84,33.83v0A4.09,4.09,0,0,1,148,29.62a4.23,4.23,0,0,1,3.17,1.26l-.92,1.05a3.2,3.2,0,0,0-2.26-1,2.72,2.72,0,0,0-2.67,2.85v0A2.72,2.72,0,0,0,148,36.67a3.14,3.14,0,0,0,2.32-1l.91.92A4.15,4.15,0,0,1,148,38a4.07,4.07,0,0,1-4.11-4.16"/>
      <polygon points="171.41 29.76 172.83 29.76 172.83 33.12 176.68 33.12 176.68 29.76 178.1 29.76 178.1 37.85 176.68 37.85 176.68 34.44 172.83 34.44 172.83 37.85 171.41 37.85 171.41 29.76"/>
      <rect x="199.03" y="29.76" width="1.42" height="8.09"/>
      <polygon points="221.36 29.76 222.68 29.76 227.01 35.35 227.01 29.76 228.41 29.76 228.41 37.85 227.21 37.85 222.75 32.09 222.75 37.85 221.36 37.85 221.36 29.76"/>
      <path d="M248.88,33.83v0a4.23,4.23,0,0,1,8.46,0v0a4.23,4.23,0,0,1-8.46,0m7,0v0a2.77,2.77,0,0,0-2.75-2.87,2.73,2.73,0,0,0-2.73,2.85v0a2.77,2.77,0,0,0,2.75,2.87,2.72,2.72,0,0,0,2.73-2.84"/>
      <polygon points="277.82 29.76 279.24 29.76 279.24 33.12 283.1 33.12 283.1 29.76 284.52 29.76 284.52 37.85 283.1 37.85 283.1 34.44 279.24 34.44 279.24 37.85 277.82 37.85 277.82 29.76"/>
      <polygon points="305.41 29.76 311.41 29.76 311.41 31.03 306.83 31.03 306.83 33.13 310.89 33.13 310.89 34.41 306.83 34.41 306.83 36.58 311.46 36.58 311.46 37.85 305.41 37.85 305.41 29.76"/>
    </symbol>
  </defs>
  <g id="レイヤー_2" data-name="レイヤー 2">
    <g id="レイヤー_1-2" data-name="レイヤー 1">
      <use id="hachinohe_logo" width="313.18" height="37.99" transform="translate(0) scale(1.63)" xlink:href="#新規シンボル"/>
    </g>
  </g>
</svg>
