<svg xmlns="http://www.w3.org/2000/svg" xmlns:xlink="http://www.w3.org/1999/xlink" width="640" height="292.2" viewBox="0 0 640 292.2">
  <defs>
    <style>
      .cls-1, .cls-2, .cls-3, .cls-4 {
        fill: none;
        stroke: #000;
        stroke-miterlimit: 10;
      }

      .cls-1 {
        stroke-width: 2px;
      }

      .cls-3 {
        stroke-dasharray: 3.02 3.02;
      }

      .cls-4 {
        stroke-dasharray: 3 3;
      }

      .cls-5 {
        fill: #fff;
      }
    </style>
    <symbol id="新規シンボル" data-name="新規シンボル" viewBox="0 0 313.18 37.99">
      <rect x="97.19" width="42.81" height="4.27"/>
      <rect x="97.19" y="9.9" width="21.4" height="4.27"/>
      <rect x="216.07" width="28.98" height="4.27"/>
      <rect x="89.5" width="4.27" height="20.46"/>
      <rect x="153.32" y="16.19" width="42.81" height="4.27"/>
      <rect x="145.63" width="4.27" height="20.46"/>
      <rect x="282.83" y="9.92" width="4.27" height="10.54"/>
      <polygon points="250.02 9.92 260.55 20.44 254.5 20.44 248.25 14.18 212.86 14.18 206.6 20.44 200.56 20.44 211.09 9.92 250.02 9.92"/>
      <rect x="256.76" width="56.41" height="4.27"/>
      <rect width="71.6" height="4.3"/>
      <rect y="16.16" width="35.8" height="4.3"/>
      <polygon points="89.4 29.76 90.82 29.76 90.82 33.12 94.68 33.12 94.68 29.76 96.1 29.76 96.1 37.85 94.68 37.85 94.68 34.44 90.82 34.44 90.82 37.85 89.4 37.85 89.4 29.76"/>
      <path d="M119.72,29.7H121l3.56,8.15h-1.5l-.82-2h-3.83l-.83,2h-1.45Zm2,4.94-1.4-3.24L119,34.64Z"/>
      <path d="M143.84,33.83v0A4.09,4.09,0,0,1,148,29.62a4.23,4.23,0,0,1,3.17,1.26l-.92,1.05a3.2,3.2,0,0,0-2.26-1,2.72,2.72,0,0,0-2.67,2.85v0A2.72,2.72,0,0,0,148,36.67a3.14,3.14,0,0,0,2.32-1l.91.92A4.15,4.15,0,0,1,148,38a4.07,4.07,0,0,1-4.11-4.16"/>
      <polygon points="171.41 29.76 172.83 29.76 172.83 33.12 176.68 33.12 176.68 29.76 178.1 29.76 178.1 37.85 176.68 37.85 176.68 34.44 172.83 34.44 172.83 37.85 171.41 37.85 171.41 29.76"/>
      <rect x="199.03" y="29.76" width="1.42" height="8.09"/>
      <polygon points="221.36 29.76 222.68 29.76 227.01 35.35 227.01 29.76 228.41 29.76 228.41 37.85 227.21 37.85 222.75 32.09 222.75 37.85 221.36 37.85 221.36 29.76"/>
      <path d="M248.88,33.83v0a4.23,4.23,0,0,1,8.46,0v0a4.23,4.23,0,0,1-8.46,0m7,0v0a2.77,2.77,0,0,0-2.75-2.87,2.73,2.73,0,0,0-2.73,2.85v0a2.77,2.77,0,0,0,2.75,2.87,2.72,2.72,0,0,0,2.73-2.84"/>
      <polygon points="277.82 29.76 279.24 29.76 279.24 33.12 283.1 33.12 283.1 29.76 284.52 29.76 284.52 37.85 283.1 37.85 283.1 34.44 279.24 34.44 279.24 37.85 277.82 37.85 277.82 29.76"/>
      <polygon points="305.41 29.76 311.41 29.76 311.41 31.03 306.83 31.03 306.83 33.13 310.89 33.13 310.89 34.41 306.83 34.41 306.83 36.58 311.46 36.58 311.46 37.85 305.41 37.85 305.41 29.76"/>
    </symbol>
    <symbol id="新規シンボル_8" data-name="新規シンボル 8" viewBox="0 0 673.15 307.33">
      <g>
        <path d="M135.41,99.67v1.27H122.9V99.67h5.52v-5.3h-4.63V93.1h4.63V88.73h1.38V93.1h4.7v1.27h-4.7v5.3Z"/>
        <path d="M140.37,96.94l1.46-.62.29,1.15c-1.47.71-3.07,1.44-4.31,2l-.51-1.31c.51-.18,1.15-.43,1.85-.71V93.22h-1.72V92h1.72V88.88h1.22V92h1.56v1.23h-1.56Zm7.79,3.16c.77,0,.91-.36,1-1.89a3.54,3.54,0,0,0,1.15.49c-.18,1.93-.57,2.56-2.1,2.56H145c-1.72,0-2.21-.43-2.21-2.11V95.1l-1,.42-.49-1.16,1.46-.62V90H144v3.19l1.57-.66V88.71h1.22v3.34l1.52-.65.26-.19.22-.19.91.35-.05.23c0,2.62,0,4.52-.12,5.07s-.3.9-.74,1a4.31,4.31,0,0,1-1.34.15,4.35,4.35,0,0,0-.3-1.1H148c.19,0,.31-.06.37-.35s.08-1.57.08-3.71l-1.62.7v5h-1.22V93.9l-1.57.67v4.59c0,.79.15.94,1.05.94Z"/>
      </g>
      <g>
        <path d="M546,76.24V82h-1.35V81.2h-8.28v.86H535V76.24h1.31v3.69h3.38V75.4h-4.16V70.51h1.3v3.63h2.86V69.29h1.33v4.85h3V70.5h1.37v4.9h-4.37v4.53h3.57V76.24Z"/>
        <path d="M552.88,73.06c-1.22.41-2.52.79-3.56,1.11L548.8,73c1-.21,2.51-.6,4-1Zm1.29,7.3a18.62,18.62,0,0,1-4.29,1.74,9,9,0,0,0-1-1A15.28,15.28,0,0,0,553,79.81Zm-1.78-8.87a19.11,19.11,0,0,0-2.93-1.14l.57-.89a16.83,16.83,0,0,1,2.93,1Zm2.64-.37a6.25,6.25,0,0,1-1.19,1.16,3.36,3.36,0,0,0-1-.63,5.84,5.84,0,0,0,2.08-2.45l1.17.18a7,7,0,0,1-.43.8h4.5l.19-.05.87.23a8.56,8.56,0,0,1-1.36,2l-1-.32a6.89,6.89,0,0,0,.7-.95h-1.93c.3,1,1.09,1.9,3.93,2.28a3.77,3.77,0,0,0-.66,1.06c-.39-.07-.75-.15-1.08-.23v5.56h-9.13V74.16h2.82a3.51,3.51,0,0,0-.58-.86c2.26-.36,3.06-1,3.38-2.18ZM558.52,75H552v.79h6.57Zm0,1.57H552v.8h6.57Zm0,1.6H552V79h6.57Zm1.08-4A4.16,4.16,0,0,1,557,72.32a4.63,4.63,0,0,1-3.13,1.84Zm-2.37,5.68a44.76,44.76,0,0,1,4.19,1.63l-1.5.61a28.24,28.24,0,0,0-3.75-1.58Z"/>
        <path d="M546.84,92.65a8,8,0,0,1-2.17,4,8.16,8.16,0,0,0,2.75,1.14,4.44,4.44,0,0,0-.64.9,8.4,8.4,0,0,1-2.92-1.36A9.29,9.29,0,0,1,541,98.72a3,3,0,0,0-.53-.82,8.18,8.18,0,0,0,2.64-1.18,8.68,8.68,0,0,1-2-3,7.66,7.66,0,0,1-2.4,4.84,3.64,3.64,0,0,0-.67-.79,7.63,7.63,0,0,0,2.24-6V91h-1.68v-.91H544l.17,0,.72.12c-.14.68-.32,1.5-.52,2.3H546l.17,0Zm-5.56-1.33a9.1,9.1,0,0,0,2.62,4.77,6.54,6.54,0,0,0,1.76-2.78h-1.53l-.13.48-1-.14c.23-.82.49-1.87.67-2.69h-2.43Z"/>
        <path d="M555.39,90.61a8.16,8.16,0,0,0,2.12,4.09l-.74.78a11.54,11.54,0,0,1-1.07-1.61c.15,2.4-.91,4.72-3.48,4.72a2.49,2.49,0,0,1-2.66-2.67,6.38,6.38,0,0,1,1.68-4c-.44.07-1.1.17-1.48.25l-.56.12-.14-1,.54,0a17.8,17.8,0,0,0,3.26-.57l.3.89a4.13,4.13,0,0,0-.52.19,6.19,6.19,0,0,0-2.09,4.08,1.6,1.6,0,0,0,1.71,1.76c2,0,3.14-2.35,2.4-6-.08-.21-.16-.42-.23-.65Zm.93,1a11.8,11.8,0,0,0-.63-1.44l.61-.2c.2.4.49,1,.64,1.42Zm1.07-.38a10.33,10.33,0,0,0-.64-1.43l.59-.21c.22.39.5,1,.68,1.42Z"/>
        <path d="M534.32,103.77h6.56v1.11h-6.56Zm6.41,11.12c0,.49-.09.79-.44,1a4,4,0,0,1-1.54.17,3.32,3.32,0,0,0-.29-1h1c.14,0,.19,0,.19-.18V112h-.87c-.73,0-.88-.2-.88-1v-.93h-.73v0a2.51,2.51,0,0,1-1.17,2.35,2.55,2.55,0,0,0-.57-.5V116h-1v-6.9h6.28Zm-.52-6.45H535v-2.9h5.18Zm-4.75,3.4a1.87,1.87,0,0,0,1-1.77h-1Zm.52.6h3.21v.88H538v2.36h-1v-2.36H536Zm3-6h-2.87v1.15H539Zm.42,4.79c.17,0,.21,0,.24-.11v-1h-1V111c0,.21,0,.23.2.23Zm6.48,4.85a6.69,6.69,0,0,0-.18-1l-4.51.83-.31-1.24c.63-.08,1.43-.19,2.3-.33v-3h-2v-5.44h2v-2.55h1.13v2.55h2.09v5.44h-2.09v2.76l1.11-.18c-.18-.57-.38-1.16-.6-1.68l1-.25a13.87,13.87,0,0,1,1.13,3.8Zm-3.62-5.85h1V107h-1Zm3.06-3.2h-1.09v3.2h1.09Z"/>
        <path d="M552.88,107.06c-1.22.41-2.52.79-3.56,1.11L548.8,107c1-.21,2.51-.6,4-1Zm1.29,7.3a18.62,18.62,0,0,1-4.29,1.74,9,9,0,0,0-1-1,15.28,15.28,0,0,0,4.08-1.32Zm-1.78-8.87a19.11,19.11,0,0,0-2.93-1.14l.57-.89a16.83,16.83,0,0,1,2.93,1Zm2.64-.37a6.25,6.25,0,0,1-1.19,1.16,3.36,3.36,0,0,0-1-.63,5.84,5.84,0,0,0,2.08-2.45l1.17.18a7,7,0,0,1-.43.8h4.5l.19-.05.87.23a8.56,8.56,0,0,1-1.36,2l-1-.32a6.89,6.89,0,0,0,.7-.95h-1.93c.3,1,1.09,1.9,3.93,2.28a3.77,3.77,0,0,0-.66,1.06c-.39-.07-.75-.15-1.08-.23v5.56h-9.13v-5.63h2.82a3.51,3.51,0,0,0-.58-.86c2.26-.36,3.06-1,3.38-2.18Zm3.49,3.86H552v.79h6.57Zm0,1.57H552v.8h6.57Zm0,1.6H552V113h6.57Zm1.08-4a4.16,4.16,0,0,1-2.56-1.84,4.63,4.63,0,0,1-3.13,1.84Zm-2.37,5.68a44.76,44.76,0,0,1,4.19,1.63l-1.5.61a28.24,28.24,0,0,0-3.75-1.58Z"/>
      </g>
      <g>
        <path d="M126.93,158h2.54v1.2h-2.54v.93c.69.5,2.16,1.76,2.54,2.1l-.75,1.11c-.39-.45-1.13-1.22-1.79-1.85v5.19h-1.27V161.1a14.4,14.4,0,0,1-2.43,3.74,9,9,0,0,0-.68-1.26,13.81,13.81,0,0,0,2.84-4.4h-2.54V158h2.81v-2.09c-.86.17-1.73.31-2.54.41a4.14,4.14,0,0,0-.39-1,26.13,26.13,0,0,0,5.7-1.39l.94,1a17.36,17.36,0,0,1-2.44.73Zm4.62,5.22h-1.26v-7.7h1.26Zm3.39-9.1V165c0,.81-.19,1.19-.68,1.41a8.41,8.41,0,0,1-2.64.24,5.76,5.76,0,0,0-.46-1.34c1,0,1.84,0,2.12,0s.36-.09.36-.34V154.1Z"/>
        <path d="M149.28,165.05c0,.76-.18,1.15-.69,1.35a7.55,7.55,0,0,1-2.62.22,5.08,5.08,0,0,0-.43-1.26c.9,0,1.82,0,2.09,0s.35-.08.35-.35v-2.51h-3.39v4h-1.31v-4h-3.22a8.06,8.06,0,0,1-1.75,4.25,4.24,4.24,0,0,0-1-.86c1.53-1.69,1.67-4.17,1.67-6.15v-5h10.32Zm-6-3.75v-2.07h-3v.56c0,.47,0,1-.05,1.51Zm-3-5.27v2h3v-2Zm7.74,0h-3.39v2H148Zm0,5.27v-2.07h-3.39v2.07Z"/>
      </g>
      <g>
        <line class="cls-1" x1="84.45" y1="117.99" x2="184.33" y2="117.99"/>
        <polygon points="177.71 126.17 176.34 124.71 183.57 117.99 176.34 111.28 177.71 109.81 186.5 117.99 177.71 126.17"/>
      </g>
      <g>
        <line class="cls-1" x1="106.62" y1="138.83" x2="212.5" y2="138.83"/>
        <polygon points="113.25 147.01 114.61 145.55 107.39 138.84 114.61 132.12 113.25 130.66 104.45 138.84 113.25 147.01"/>
      </g>
      <g>
        <line class="cls-1" x1="488.25" y1="128.41" x2="588.53" y2="128.41"/>
        <polygon points="494.88 136.59 496.24 135.13 489.02 128.41 496.24 121.7 494.88 120.23 486.08 128.41 494.88 136.59"/>
      </g>
      <g>
        <line class="cls-1" x1="336.57" y1="160.56" x2="336.57" y2="204.91"/>
        <polygon points="328.39 198.29 329.86 196.92 336.57 204.15 343.29 196.92 344.75 198.29 336.57 207.08 328.39 198.29"/>
      </g>
      <g>
        <polyline class="cls-2" points="511.57 305.33 511.57 306.83 510.07 306.83"/>
        <line class="cls-3" x1="507.06" y1="306.83" x2="164.58" y2="306.83"/>
        <polyline class="cls-2" points="163.07 306.83 161.57 306.83 161.57 305.33"/>
        <line class="cls-4" x1="161.57" y1="302.33" x2="161.57" y2="3.5"/>
        <polyline class="cls-2" points="161.57 2 161.57 0.5 163.07 0.5"/>
        <line class="cls-3" x1="166.09" y1="0.5" x2="508.56" y2="0.5"/>
        <polyline class="cls-2" points="510.07 0.5 511.57 0.5 511.57 2"/>
        <line class="cls-4" x1="511.57" y1="5" x2="511.57" y2="303.83"/>
      </g>
      <g>
        <rect class="cls-5" x="197.07" y="87.17" width="279" height="78"/>
        <path d="M475.57,87.67v77h-278v-77h278m1-1h-280v79h280v-79Z"/>
      </g>
      <g>
        <rect class="cls-5" x="197.07" y="225.64" width="279" height="59"/>
        <path d="M475.57,226.14v58h-278v-58h278m1-1h-280v60h280v-60Z"/>
      </g>
      <g>
        <path d="M284,121.23l-3.17-5.7h2.06l1.42,2.75c.29.55.55,1.08.9,1.78h.08c.31-.7.53-1.23.8-1.78l1.39-2.75h2l-3.17,5.8,3.39,6h-2.06L286,124.38c-.3-.59-.6-1.2-1-1.92H285c-.33.72-.62,1.33-.91,1.92l-1.5,2.93h-2Z"/>
        <path d="M291.13,125.79l1.08-1.28a4.56,4.56,0,0,0,3.14,1.39c1.42,0,2.23-.67,2.23-1.66s-.81-1.41-1.89-1.89l-1.64-.7a3.4,3.4,0,0,1-2.4-3.09c0-1.86,1.64-3.25,3.88-3.25a5,5,0,0,1,3.57,1.49l-1,1.18a3.74,3.74,0,0,0-2.59-1.06c-1.2,0-2,.58-2,1.52s.95,1.4,1.91,1.78l1.61.69a3.28,3.28,0,0,1,2.4,3.18c0,1.89-1.56,3.43-4.14,3.43A5.85,5.85,0,0,1,291.13,125.79Z"/>
        <path d="M302.49,115.53h2.12l2.17,6c.27.78.51,1.58.78,2.38h.08c.27-.8.5-1.6.77-2.38l2.13-6h2.14v11.78H311v-5.82c0-1.06.15-2.58.24-3.65h-.06l-.94,2.72-2.05,5.62H307l-2.06-5.62-.93-2.72h-.06c.08,1.07.22,2.59.22,3.65v5.82h-1.66Z"/>
        <path d="M321,115.53h7v1.55h-5.12v3.61h4.36v1.55h-4.36v5.07H321Z"/>
        <path d="M330.82,115.53h1.86v10.21h5v1.57h-6.84Z"/>
        <path d="M346,124h-4.1l-1,3.36H339l3.91-11.78H345l3.91,11.78h-2Zm-.45-1.46-.47-1.58c-.4-1.28-.75-2.59-1.12-3.92h-.06c-.34,1.34-.71,2.64-1.09,3.92l-.48,1.58Z"/>
        <path d="M352.6,117.08h-3.46v-1.55h8.79v1.55h-3.48v10.23H352.6Z"/>
        <path d="M365.42,118.48c-.63,3.65-1.75,7.76-4.33,10.13a9.87,9.87,0,0,0-1.24-1.09c2.41-2.14,3.44-6,3.84-9.28Zm4.75-3.41c.45,5.2,1.44,10,4.4,12.27a8.88,8.88,0,0,0-1.46,1.2c-2.83-2.48-3.87-7-4.37-11.9h-5.45v-1.57Z"/>
        <path d="M389.8,124.4h-1.5v-.91H380a8.44,8.44,0,0,1-2.34,5.15,6.46,6.46,0,0,0-1.15-1.06c1.9-1.79,2.1-4.35,2.1-6.32v-3.55H389.8Zm1.12-9.64v1.43H377.14v-1.43Zm-10.75,4.32v2.21c0,.26,0,.53,0,.8h8.15v-3Z"/>
      </g>
      <g>
        <path d="M245.86,143.27a8,8,0,0,1,2.39-5.71l.72.37a7.49,7.49,0,0,0,0,10.68l-.72.37A8,8,0,0,1,245.86,143.27Z"/>
        <path d="M251.11,138.28H252v10.46h-.92Zm9.18.35v10h-.92v-.79h-4.56v.89h-.9v-10.1Zm-5.48.84v3.22h4.56v-3.22Zm4.56,7.53v-3.47h-4.56V147Z"/>
        <path d="M272.4,140.33a6.18,6.18,0,0,0-.28.64,11.7,11.7,0,0,1-2.13,4.12,10.56,10.56,0,0,1-4.77,3.27l-.86-.78a9.73,9.73,0,0,0,4.78-3,9.62,9.62,0,0,0,1.91-3.75H267a11.7,11.7,0,0,1-3,3l-.83-.62a9.77,9.77,0,0,0,3.77-4.05,3.76,3.76,0,0,0,.37-.95l1.12.37a10.2,10.2,0,0,0-.54.94c-.09.16-.18.33-.29.5h3.26a2.35,2.35,0,0,0,.78-.11Z"/>
        <path d="M283.78,146.46c0,.38,0,1.31,0,1.44h-1c0-.08,0-.36,0-.68h-6.55c0,.31,0,.6,0,.68h-1c0-.14,0-1,0-1.45v-5.9c0-.28,0-.65,0-.94l1.07,0h6.44c.26,0,.69,0,1.05,0,0,.3,0,.64,0,.94Zm-7.55-5.88v5.7h6.57v-5.7Z"/>
        <path d="M295,139.8a4.77,4.77,0,0,0-.3.53,15,15,0,0,1-2,3.52,33.94,33.94,0,0,1,3.5,3.57l-.84.73a27.24,27.24,0,0,0-3.3-3.56,15.12,15.12,0,0,1-4.67,3.5l-.77-.8a13.8,13.8,0,0,0,4.94-3.56,10.82,10.82,0,0,0,2-3.34h-4.68c-.42,0-1.08.05-1.21.06v-1.09c.17,0,.85.08,1.21.08h4.63a3.22,3.22,0,0,0,.9-.1Z"/>
        <path d="M306.35,139.8a3.57,3.57,0,0,0-.3.53,15.36,15.36,0,0,1-2,3.52,33.94,33.94,0,0,1,3.5,3.57l-.84.73a28,28,0,0,0-3.3-3.56,15,15,0,0,1-4.68,3.5l-.76-.8a13.8,13.8,0,0,0,4.94-3.56,10.82,10.82,0,0,0,2-3.34h-4.68c-.42,0-1.08.05-1.21.06v-1.09c.17,0,.85.08,1.21.08h4.63a3.22,3.22,0,0,0,.9-.1Z"/>
        <path d="M312.62,143.43a18.11,18.11,0,0,1-2.3,3.29l-.83-.56a12.85,12.85,0,0,0,2.29-3.14Zm2.57-1.85v5.8c0,.64-.32,1-1,1-.5,0-1.22,0-1.7-.08l-.1-1a8.3,8.3,0,0,0,1.4.14c.32,0,.46-.14.46-.45v-5.41h-3.33c-.36,0-.7,0-1,0v-1c.34,0,.64.06,1,.06h3.33v-1.24a4.23,4.23,0,0,0-.08-.85h1.13a5.24,5.24,0,0,0-.07.86v1.23h3.16a6.53,6.53,0,0,0,1-.06v1c-.32,0-.68,0-1,0Zm2.44,1.45a25.75,25.75,0,0,1,2.08,3.13l-.89.49a21,21,0,0,0-2-3.19Zm-.37-4.07a1.32,1.32,0,0,1,2.63,0,1.32,1.32,0,0,1-2.63,0Zm.55,0a.76.76,0,1,0,.76-.76A.77.77,0,0,0,317.81,139Z"/>
        <path d="M322.05,142.63c.36,0,1,.06,1.67.06h6.57a12.06,12.06,0,0,0,1.3-.06v1.18c-.24,0-.75-.06-1.29-.06h-6.58c-.66,0-1.3,0-1.67.06Z"/>
        <path d="M336.28,142.83l-.94.33a29.3,29.3,0,0,0-1.35-3.28l.95-.35C335.25,140.2,336,142,336.28,142.83Zm7.33-3.25a4.79,4.79,0,0,0-.21.68,12.5,12.5,0,0,1-2,4.5,10.5,10.5,0,0,1-4.7,3.46l-.82-.84a9.66,9.66,0,0,0,4.71-3.19,10.84,10.84,0,0,0,1.92-4.93ZM339.47,142l-.93.33a29.93,29.93,0,0,0-1.18-3.17l.93-.31C338.55,139.38,339.27,141.29,339.47,142Z"/>
        <path d="M355.2,140.22c-.12.14-.22.27-.3.38a18.85,18.85,0,0,1-4.36,4.87c.72.72,1.57,1.61,2,2.2l-.88.7a27.72,27.72,0,0,0-2.16-2.45,28.36,28.36,0,0,0-2.74-2.36l.78-.63c.44.33,1.42,1.12,2.24,1.85a14.75,14.75,0,0,0,3.74-4.16h-7.05c-.47,0-1,0-1.22.07v-1.08a8.72,8.72,0,0,0,1.22.1h7.15a2.47,2.47,0,0,0,.77-.1Z"/>
        <path d="M357.21,142.63c.36,0,1,.06,1.67.06h6.57a12.06,12.06,0,0,0,1.3-.06v1.18c-.24,0-.75-.06-1.29-.06h-6.58c-.66,0-1.3,0-1.67.06Z"/>
        <path d="M378.15,140.61a8.78,8.78,0,0,0,1.12-.06v1l-1.12,0h-2c-.19,3.43-1.53,5.44-3.6,6.76l-1-.7a4.07,4.07,0,0,0,1-.55,6.88,6.88,0,0,0,2.63-5.51H372a9.61,9.61,0,0,1-2,2.57l-1-.56a9,9,0,0,0,2.14-2.58,8.44,8.44,0,0,0,.68-1.68,4,4,0,0,0,.18-1l1.15.23c-.11.27-.21.59-.3.84s-.27.78-.45,1.21Z"/>
        <path d="M389.62,142a6.25,6.25,0,0,0,.94-.06v1l-.94,0h-3.26a7.33,7.33,0,0,1-.71,3.28,5.71,5.71,0,0,1-2.36,2.18l-.89-.65a5,5,0,0,0,2.27-1.83,5.84,5.84,0,0,0,.69-3h-3.58c-.38,0-.72,0-1,0v-1a8.62,8.62,0,0,0,1,.06Zm-6.37-2.11c-.39,0-.79,0-1.09,0v-1a9.19,9.19,0,0,0,1.08.07h4.86a8.48,8.48,0,0,0,1.11-.07v1c-.35,0-.77,0-1.11,0Z"/>
        <path d="M399.44,141.3a14.25,14.25,0,0,1-2.73,2.17v4.25a6.93,6.93,0,0,0,.06,1h-1.1c0-.18.05-.67.05-1v-3.67a21.46,21.46,0,0,1-3.77,1.54l-.51-.88a16.32,16.32,0,0,0,4.16-1.64,12.56,12.56,0,0,0,3.09-2.47Z"/>
        <path d="M406.54,145.32a11.33,11.33,0,0,0,4-4.41l.57,1a11.93,11.93,0,0,1-4,4.26,13.22,13.22,0,0,1-4.71,1.87l-.64-1A12.33,12.33,0,0,0,406.54,145.32Zm-.71-3.8-.75.76a24.26,24.26,0,0,0-3-2.51l.69-.73A25.93,25.93,0,0,1,405.83,141.52Z"/>
        <path d="M420.16,140.25a2.35,2.35,0,0,0,.78-.11l.79.48a4.1,4.1,0,0,0-.27.64,11.74,11.74,0,0,1-2.13,4.13,10.69,10.69,0,0,1-4.77,3.27l-.88-.8a9.28,9.28,0,0,0,6.71-6.75h-4a11.64,11.64,0,0,1-3.05,2.95l-.83-.61a10,10,0,0,0,3.77-4,4.47,4.47,0,0,0,.37-1l1.1.37c-.19.31-.4.72-.52.93s-.18.34-.28.51Zm.78-2a16.69,16.69,0,0,1,1,1.65l-.64.28a12.57,12.57,0,0,0-1-1.65Zm1.32-.48a15.11,15.11,0,0,1,1,1.63l-.63.29a12.8,12.8,0,0,0-1-1.64Z"/>
        <path d="M426.68,143.27a8,8,0,0,1-2.39,5.71l-.72-.37a7.51,7.51,0,0,0,0-10.68l.72-.37A8,8,0,0,1,426.68,143.27Z"/>
      </g>
      <g>
        <path d="M225.62,256.32a5.51,5.51,0,0,0-.45,1,15.87,15.87,0,0,1-2.82,5.44,14.51,14.51,0,0,1-6.4,4.43l-1.49-1.33a12.89,12.89,0,0,0,6.42-4,12.12,12.12,0,0,0,2.43-4.72h-5a16.74,16.74,0,0,1-4.07,3.91l-1.41-1a13.57,13.57,0,0,0,5-5.3,7.43,7.43,0,0,0,.59-1.44l1.86.6c-.32.49-.66,1.11-.83,1.43l-.23.4h3.84a3.79,3.79,0,0,0,1.2-.16Z"/>
        <path d="M240.74,264.42c0,.56,0,1.94,0,2.06H239c0-.08,0-.44,0-.89h-8.3a8.67,8.67,0,0,0,0,.89h-1.73c0-.14,0-1.42,0-2.06v-7.86c0-.42,0-1,0-1.39.62,0,1.13,0,1.53,0h8.7c.36,0,.94,0,1.47,0,0,.44,0,.93,0,1.38Zm-10-7.62V264h8.31v-7.2Z"/>
        <path d="M255.74,255.54a5.61,5.61,0,0,0-.46.83,21.92,21.92,0,0,1-2.62,4.56,42.8,42.8,0,0,1,4.57,4.69l-1.42,1.25a34.79,34.79,0,0,0-4.23-4.68,20.37,20.37,0,0,1-6.16,4.6l-1.3-1.35a17.83,17.83,0,0,0,6.58-4.69,13.16,13.16,0,0,0,2.55-4.22h-5.88c-.62,0-1.48.08-1.74.09v-1.8c.32,0,1.25.11,1.74.11h5.94a5.06,5.06,0,0,0,1.39-.16Z"/>
        <path d="M270.93,255.54a6.63,6.63,0,0,0-.47.83,21.92,21.92,0,0,1-2.62,4.56,43,43,0,0,1,4.58,4.69L271,266.87a35.36,35.36,0,0,0-4.22-4.68,20.54,20.54,0,0,1-6.17,4.6l-1.29-1.35a18,18,0,0,0,6.58-4.69,12.94,12.94,0,0,0,2.54-4.22h-5.87c-.63,0-1.49.08-1.75.09v-1.8c.32,0,1.25.11,1.75.11h5.94a5.06,5.06,0,0,0,1.39-.16Z"/>
        <path d="M279.17,260.5a24.13,24.13,0,0,1-3.08,4.42l-1.37-.95a16.67,16.67,0,0,0,3-4.16Zm3.5-2.39v7.62c0,.87-.45,1.36-1.49,1.36a24,24,0,0,1-2.43-.11l-.15-1.58a11.78,11.78,0,0,0,1.83.17c.42,0,.59-.16.61-.59v-6.87h-4.28c-.49,0-1,0-1.44.05v-1.68a12.84,12.84,0,0,0,1.43.1H281v-1.49a7.39,7.39,0,0,0-.13-1.25h1.89a8.3,8.3,0,0,0-.13,1.26v1.48h4a11.3,11.3,0,0,0,1.42-.1v1.67c-.46,0-1,0-1.41,0Zm3.27,1.68a35.26,35.26,0,0,1,2.75,4.2l-1.47.83a27.69,27.69,0,0,0-2.66-4.27Zm-.68-5.39a1.81,1.81,0,1,1,1.8,1.79A1.79,1.79,0,0,1,285.26,254.4Zm.85,0a1,1,0,0,0,.95,1,1,1,0,1,0-.95-1Z"/>
        <path d="M291.55,259.17c.51.05,1.5.1,2.37.1h8.69c.78,0,1.41-.07,1.79-.1v2c-.35,0-1.07-.07-1.77-.07h-8.71c-.9,0-1.84,0-2.37.07Z"/>
        <path d="M310.75,259.49l-1.62.59a41.17,41.17,0,0,0-1.81-4.45l1.6-.57C309.37,256,310.36,258.42,310.75,259.49Zm9.83-4.27a7.48,7.48,0,0,0-.34,1,17.78,17.78,0,0,1-2.67,6,14.15,14.15,0,0,1-6.29,4.64l-1.39-1.41a12.83,12.83,0,0,0,6.29-4.19,14.6,14.6,0,0,0,2.52-6.64Zm-5.57,3.1-1.59.56a39.78,39.78,0,0,0-1.6-4.27l1.55-.53A43.56,43.56,0,0,1,315,258.32Z"/>
        <path d="M336,256.19a4.8,4.8,0,0,0-.47.56,25.47,25.47,0,0,1-5.65,6.4c.95,1,2,2.07,2.63,2.84L331,267.17a41.5,41.5,0,0,0-3-3.36,37,37,0,0,0-3.6-3.1l1.31-1.08c.61.45,1.83,1.43,2.88,2.37a18.56,18.56,0,0,0,4.58-5.14h-9c-.64,0-1.4.07-1.73.1v-1.79a14.55,14.55,0,0,0,1.73.13h9.25a3.94,3.94,0,0,0,1.23-.15Z"/>
        <path d="M338.43,259.17c.51.05,1.5.1,2.37.1h8.69c.78,0,1.41-.07,1.79-.1v2c-.35,0-1.07-.07-1.77-.07H340.8c-.9,0-1.84,0-2.37.07Z"/>
        <path d="M366.4,256.48a11,11,0,0,0,1.57-.1v1.73c-.54,0-1.2-.05-1.57-.05h-2.5c-.28,4.44-2,7.21-4.83,9l-1.7-1.15a6.49,6.49,0,0,0,1.4-.8c1.61-1.23,3.17-3.28,3.41-7h-3.8a13.26,13.26,0,0,1-2.62,3.41l-1.59-1a12.62,12.62,0,0,0,2.82-3.37,11.92,11.92,0,0,0,.91-2.23,6.27,6.27,0,0,0,.27-1.42l2,.38c-.16.37-.34.87-.47,1.2s-.32.9-.53,1.41Z"/>
        <path d="M381.7,258.42c.33,0,.94,0,1.34-.08V260c-.37,0-.93-.05-1.34-.05h-4.12a9.89,9.89,0,0,1-1,4.27,7.82,7.82,0,0,1-3.18,3l-1.48-1.09a6.6,6.6,0,0,0,3-2.39,7.51,7.51,0,0,0,1-3.77h-4.63c-.48,0-1,0-1.46.05v-1.65c.45,0,1,.08,1.46.08Zm-8.47-2.55c-.53,0-1.12,0-1.57,0v-1.65a11.27,11.27,0,0,0,1.57.11h6.45a10.85,10.85,0,0,0,1.6-.11v1.65c-.51,0-1.1,0-1.6,0Z"/>
        <path d="M395,257.66a19.63,19.63,0,0,1-3.61,2.9v5.52a9.44,9.44,0,0,0,.08,1.54h-1.86c0-.27.08-1,.08-1.54v-4.54a26.42,26.42,0,0,1-4.82,1.9L384,262a20.78,20.78,0,0,0,5.61-2.18,16,16,0,0,0,4.11-3.29Z"/>
        <path d="M404,262.85a15.22,15.22,0,0,0,5.56-6l1,1.74a16.63,16.63,0,0,1-5.62,5.8,17.76,17.76,0,0,1-6.13,2.38l-1.08-1.65A16.61,16.61,0,0,0,404,262.85Zm-.54-5.12-1.26,1.3a37,37,0,0,0-4-3.4l1.17-1.25A33,33,0,0,1,403.44,257.73Z"/>
        <path d="M422.29,256.06a3.52,3.52,0,0,0,1.2-.16l1.31.8a6.32,6.32,0,0,0-.45,1,15.74,15.74,0,0,1-2.81,5.44,14.46,14.46,0,0,1-6.41,4.42l-1.48-1.33a12.77,12.77,0,0,0,6.41-4,12.11,12.11,0,0,0,2.44-4.73h-5a16.64,16.64,0,0,1-4.05,3.91l-1.41-1a13.8,13.8,0,0,0,5-5.3,7.43,7.43,0,0,0,.59-1.44l1.85.61c-.32.48-.65,1.09-.83,1.41a4.36,4.36,0,0,1-.24.41Zm1.28-2.68a21.76,21.76,0,0,1,1.3,2.19l-1.06.45a19.56,19.56,0,0,0-1.26-2.21Zm1.81-.69a19.83,19.83,0,0,1,1.33,2.17l-1,.47a16.33,16.33,0,0,0-1.32-2.21Z"/>
        <path d="M430.29,260.23a10.68,10.68,0,0,1,3.17-7.66l1.22.58a10,10,0,0,0,0,14.15l-1.22.58A10.64,10.64,0,0,1,430.29,260.23Z"/>
        <path d="M441.17,261.79c-.21-.51-.66-1.37-1.06-2.17v7.95h-1.46v-7.06a15.72,15.72,0,0,1-1.79,4,8.22,8.22,0,0,0-.73-1.49,16,16,0,0,0,2.41-5.73h-2.06V255.9h2.17v-3h1.46v3h1.94v1.38h-1.94v.5c.43.59,1.65,2.51,1.94,3Zm6.9-.78a12,12,0,0,0,3.2,4.51,6.06,6.06,0,0,0-1.09,1.17,15,15,0,0,1-2.9-4.54v5.42h-1.46v-5.31a12.68,12.68,0,0,1-3.63,4.56,5.47,5.47,0,0,0-1-1.15,11.36,11.36,0,0,0,3.86-4.66h-2.9v-1.36h3.66v-2.53h-1.77a9.42,9.42,0,0,1-1,2.16,8.89,8.89,0,0,0-1.19-.75,12,12,0,0,0,1.57-4.88l1.38.22c-.1.66-.23,1.28-.37,1.89h1.37v-2.87h1.46v2.87h3.06v1.36h-3.06v2.53h3.54V261Z"/>
        <path d="M456.94,260.23a10.64,10.64,0,0,1-3.17,7.65l-1.21-.58a10,10,0,0,0,0-14.15l1.21-.58A10.68,10.68,0,0,1,456.94,260.23Z"/>
      </g>
      <g>
        <path d="M353.23,188.15a3.76,3.76,0,0,0,3.27,1.47c1.58.07,4.83,0,6.61-.1a5.26,5.26,0,0,0-.42,1.27c-1.61.07-4.58.1-6.21,0a4.65,4.65,0,0,1-3.79-1.61c-.59.58-1.21,1.14-1.89,1.74l-.65-1.29a19.64,19.64,0,0,0,1.84-1.43v-3.37h-1.68v-1.21h2.92Zm-.67-6.5a9.86,9.86,0,0,0-2.16-2.34l1-.73a10.35,10.35,0,0,1,2.21,2.24Zm5.1,6.47h-3.82v-1h3.82v-.69h-2.93v-4h2.93v-.7h-3.31v-.93h3.31v-.87h1.27v.87h3.37v.93h-3.37v.7h3v4h-3v.69h3.95v1h-3.95v1.15h-1.27Zm-2.48-7.58H354v-1.85h8.64v1.85h-1.2v-.88h-6.29Zm.67,3.5h1.81v-.76h-1.81Zm1.81,1.57v-.78h-1.81v.78Zm1.27-2.33V184h1.87v-.76Zm1.87,1.55h-1.87v.78h1.87Z"/>
        <path d="M377.22,180.41v2.83H376v-1.72h-9.16v1.72h-1.2v-2.83h1.85a11.1,11.1,0,0,0-1-1.51l1.13-.48a8.85,8.85,0,0,1,1.28,1.8l-.44.19h2.48a10.68,10.68,0,0,0-1-1.83l1.13-.39a8,8,0,0,1,1.09,1.9l-.82.32h2.45a14.67,14.67,0,0,0,1.34-2.08l1.39.43c-.43.57-.9,1.16-1.32,1.65Zm-5.35,5.31c-.14.35-.28.7-.41,1h4.79v4.36H375v-.49h-7v.5h-1.24v-4.37h3.5c.1-.32.18-.69.26-1h-2.71v-3.29h7.32v3.29Zm3.08,2.14h-7v1.62h7Zm-6-3.12h4.85V183.4h-4.85Z"/>
        <path d="M385.66,184.73l-.64,1h7.33v1.07h-2.87a5.69,5.69,0,0,1-1.44,2c1.5.41,2.86.83,3.88,1.22l-.78,1.08a39.31,39.31,0,0,0-4.35-1.45,16.75,16.75,0,0,1-6.34,1.45,3.81,3.81,0,0,0-.52-1.14,18.81,18.81,0,0,0,5-.78c-.64-.16-1.3-.31-2-.45l-.24.32-1.23-.4c.38-.51.84-1.15,1.3-1.83h-3.07v-1.07h3.8c.32-.49.63-1,.88-1.41l.95.27v-2.3a12.38,12.38,0,0,1-5,3,4.68,4.68,0,0,0-.8-1,12,12,0,0,0,4.42-2.14h-4.07V181h5.47v-1.19c-1.42.1-2.88.16-4.22.17a4.84,4.84,0,0,0-.27-1,57.23,57.23,0,0,0,9-.79l1,.93a37.31,37.31,0,0,1-4.21.58V181h5.51v1.07h-4.08a12.33,12.33,0,0,0,4.41,2,5.9,5.9,0,0,0-.84,1.08,12.58,12.58,0,0,1-5-2.89v2.43Zm-1.36,2.08c-.21.33-.42.63-.64.94,1,.2,1.94.42,2.88.65a4.82,4.82,0,0,0,1.49-1.59Z"/>
        <path d="M399.88,181.58h-5.59v-1h5.59Zm-.57,8.74h-3.24v.58h-1.15v-4.7h4.39ZM395,182.44h4.4v1H395Zm0,1.87h4.4v1H395Zm4.41-4.6H395v-1h4.32Zm-3.29,7.54v2h2.08v-2Zm9.5,2.44c.41,0,.48-.41.53-2.11a3.83,3.83,0,0,0,1.19.57c-.12,2.07-.45,2.78-1.61,2.78H404c-1.26,0-1.6-.43-1.6-2v-3.7l-2.52.4-.2-1.27,2.72-.4v-3.36c-.7.14-1.4.26-2.06.38a4.49,4.49,0,0,0-.43-1.1,26.31,26.31,0,0,0,5.66-1.54l1.07,1a20.06,20.06,0,0,1-2.94.92v3.46l3.31-.5.22,1.22-3.53.54V189c0,.62.09.72.51.72Z"/>
      </g>
      <use width="313.18" height="37.99" transform="translate(227.14 23.77) scale(0.72)" xlink:href="#新規シンボル"/>
      <rect x="292.28" y="72.22" width="88.58" height="28.24" rx="14.12"/>
      <g>
        <path class="cls-5" d="M318.81,91.09c.59,0,.7-.26.77-1.54a3.56,3.56,0,0,0,1.08.46c-.15,1.69-.52,2.18-1.76,2.18h-2.65c-1.51,0-1.9-.36-1.9-1.76v-3.1l-.73.35-.48-1.08,1.21-.56v-2a6.23,6.23,0,0,1-.44.55,8.7,8.7,0,0,0-1-.91,5.78,5.78,0,0,0,.69-.9h-3.13c0,.59,0,1.17,0,1.74H313s0,.38,0,.55c-.08,4.54-.15,6.13-.52,6.61a1,1,0,0,1-.84.5,8.1,8.1,0,0,1-1.45,0,3.17,3.17,0,0,0-.34-1.16c.52,0,1,0,1.18,0a.39.39,0,0,0,.42-.19c.21-.28.29-1.59.35-5.2h-1.42c-.18,2.59-.61,4.93-1.78,6.51a3.65,3.65,0,0,0-1-.88c1.4-1.92,1.55-5.21,1.61-8.56h-1.44v-1.2h2.32V79.4h1.25v2.19h2.31v1.06A10.81,10.81,0,0,0,315,79.38l1.29.26a16.67,16.67,0,0,1-.48,1.61h4.71v1.19h-5.2a9.66,9.66,0,0,1-.85,1.49h1.08V85.5l1.06-.49V82.89h1.11v1.6l1.25-.58.11-.08.22-.15.8.29-.06.18c0,2,0,3.6-.05,4a.86.86,0,0,1-.62.86,3.29,3.29,0,0,1-1.09.11,3.36,3.36,0,0,0-.25-1h.61c.14,0,.21,0,.26-.23s0-1.19,0-2.72l-1.22.57v4h-1.11V86.28l-1.06.51v3.65c0,.55.11.65.85.65Z"/>
        <path class="cls-5" d="M327.78,82.74h-5.35v-1h5.35Zm-.5,8.74h-3.09v.59h-1.13V87.36h4.22Zm0-7.08a3.19,3.19,0,0,0,1.48-2.92V79.81h4.49V83.1c0,.32,0,.38.23.38H334c.21,0,.27-.18.3-1.47a2.91,2.91,0,0,0,1.06.48c-.08,1.66-.41,2.1-1.22,2.1h-.89c-1,0-1.26-.33-1.26-1.47V81h-2v.52a4.24,4.24,0,0,1-1.77,3.77,4.73,4.73,0,0,0-.94-.83v.18h-4.2v-1h4.2Zm-4.2,1.07h4.2v1h-4.2Zm4.16-4.6h-4.1v-1h4.1Zm-3.06,7.54v2h2v-2Zm10.43-2.76a9.08,9.08,0,0,1-2.27,4.09,9.14,9.14,0,0,0,3.07,1.37,5.38,5.38,0,0,0-.84,1.12,9.45,9.45,0,0,1-3.21-1.63A10.39,10.39,0,0,1,328,92.23a4.28,4.28,0,0,0-.7-1.14,9.51,9.51,0,0,0,3.11-1.38,10,10,0,0,1-1.82-2.77l1.17-.36a7.42,7.42,0,0,0,1.61,2.34A7.07,7.07,0,0,0,333,86.56h-5V85.37h5.59l.24,0Z"/>
        <path class="cls-5" d="M339.15,87.08a10.54,10.54,0,0,1-1.23,5.18,6.13,6.13,0,0,0-1-.8c.94-1.48,1-3.62,1-5.22V82.58h5.26v4.5Zm4.36-5.77h-6.05V80.12h6.05Zm-4.34,2.45V85.9h2.74V83.76Zm10.89,1.58h-1.4v6.91h-1.3V85.34H345.3c-.08,2.16-.55,4.93-2.42,6.88a3.15,3.15,0,0,0-1-.88c1.93-2,2.13-4.76,2.13-6.88V80.69l1,.24a16.93,16.93,0,0,0,3.69-1.39l1.15,1A23.22,23.22,0,0,1,345.31,82V84.1h4.75Z"/>
        <path class="cls-5" d="M356.93,82.36c-.22.48-.47,1-.73,1.4h6.6v7c0,.7-.14,1.09-.64,1.28a7.25,7.25,0,0,1-2.44.21,4.75,4.75,0,0,0-.41-1.26,19,19,0,0,0,1.91,0c.24,0,.31-.07.31-.28v-1.2h-5.48v2.73h-1.29V85.83a11.36,11.36,0,0,1-2.1,1.94,8.12,8.12,0,0,0-.85-1,11.68,11.68,0,0,0,3.68-4.4h-3.31V81.14H356a14.42,14.42,0,0,0,.59-1.75l1.33.31c-.15.47-.31,1-.49,1.44h7v1.22Zm4.6,2.53h-5.48v1.22h5.48Zm0,3.53V87.21h-5.48v1.21Z"/>
      </g>
      <rect x="292.28" y="212.63" width="88.58" height="28.24" rx="14.12"/>
      <g>
        <path class="cls-5" d="M318.81,231.5c.59,0,.7-.25.77-1.54a3.33,3.33,0,0,0,1.08.46c-.15,1.7-.52,2.19-1.76,2.19h-2.65c-1.51,0-1.9-.37-1.9-1.77v-3.09l-.73.35-.48-1.08,1.21-.56v-2a6.06,6.06,0,0,1-.44.54,8.7,8.7,0,0,0-1-.91,5.69,5.69,0,0,0,.69-.89h-3.13c0,.59,0,1.16,0,1.73H313s0,.38,0,.55c-.08,4.54-.15,6.14-.52,6.61a1,1,0,0,1-.84.51,10.55,10.55,0,0,1-1.45,0,3.11,3.11,0,0,0-.34-1.16c.52,0,1,0,1.18,0a.42.42,0,0,0,.42-.2c.21-.28.29-1.58.35-5.19h-1.42c-.18,2.59-.61,4.93-1.78,6.51a3.34,3.34,0,0,0-1-.88c1.4-1.92,1.55-5.21,1.61-8.56h-1.44V222h2.32v-2.18h1.25V222h2.31v1.07a11,11,0,0,0,1.26-3.28l1.29.27c-.14.54-.29,1.09-.48,1.61h4.71v1.19h-5.2a10,10,0,0,1-.85,1.48h1.08v1.57l1.06-.49v-2.11h1.11v1.59l1.25-.57.11-.09.22-.15.8.29-.06.19c0,2,0,3.6-.05,4a.84.84,0,0,1-.62.85,3,3,0,0,1-1.09.11,3.53,3.53,0,0,0-.25-1c.22,0,.5,0,.61,0s.21,0,.26-.24,0-1.19,0-2.72l-1.22.58v4h-1.11V226.7l-1.06.5v3.66c0,.54.11.64.85.64Z"/>
        <path class="cls-5" d="M327.78,223.15h-5.35v-1h5.35Zm-.5,8.74h-3.09v.59h-1.13v-4.71h4.22Zm0-7.07a3.21,3.21,0,0,0,1.48-2.93v-1.67h4.49v3.3c0,.32,0,.37.23.37H334c.21,0,.27-.18.3-1.47a2.91,2.91,0,0,0,1.06.48c-.08,1.67-.41,2.1-1.22,2.1h-.89c-1,0-1.26-.32-1.26-1.47v-2.14h-2v.51a4.23,4.23,0,0,1-1.77,3.77,4.69,4.69,0,0,0-.94-.82V225h-4.2v-1h4.2Zm-4.2,1.06h4.2v1h-4.2Zm4.16-4.59h-4.1v-1h4.1Zm-3.06,7.53v2h2v-2Zm10.43-2.76a9.12,9.12,0,0,1-2.27,4.1,9.55,9.55,0,0,0,3.07,1.37,4.9,4.9,0,0,0-.84,1.12,9.46,9.46,0,0,1-3.21-1.64,10.62,10.62,0,0,1-3.38,1.64,4.33,4.33,0,0,0-.7-1.15,9.49,9.49,0,0,0,3.11-1.37,10.21,10.21,0,0,1-1.82-2.78l1.17-.36a7.2,7.2,0,0,0,1.61,2.34A7,7,0,0,0,333,227h-5v-1.19h5.59l.24,0Z"/>
        <path class="cls-5" d="M340.17,229.72c.61,1,1.71,1.4,3.27,1.47s4.83,0,6.61-.1a6,6,0,0,0-.42,1.28c-1.61.07-4.58.1-6.21,0a4.65,4.65,0,0,1-3.79-1.61c-.59.57-1.21,1.13-1.89,1.74l-.65-1.29a19.64,19.64,0,0,0,1.84-1.43v-3.38h-1.68v-1.2h2.92Zm-.67-6.5a9.86,9.86,0,0,0-2.16-2.34l1-.73a10.38,10.38,0,0,1,2.21,2.25Zm5.1,6.47h-3.82v-1h3.82V228h-2.93v-4h2.93v-.7h-3.31v-.94h3.31v-.87h1.27v.87h3.37v.94h-3.37v.7h3v4h-3v.68h3.95v1h-3.95v1.15H344.6Zm-2.48-7.57H341v-1.85h8.64v1.85h-1.2v-.89h-6.29Zm.67,3.5h1.81v-.76h-1.81Zm1.81,1.57v-.79h-1.81v.79Zm1.27-2.33v.76h1.87v-.76Zm1.87,1.54h-1.87v.79h1.87Z"/>
        <path class="cls-5" d="M364.16,222v2.83h-1.25V223.1h-9.16v1.72h-1.2V222h1.85a10,10,0,0,0-1-1.51l1.13-.48a8.54,8.54,0,0,1,1.28,1.79l-.44.2h2.48a10.75,10.75,0,0,0-1-1.84l1.13-.39a8.61,8.61,0,0,1,1.09,1.91l-.82.32h2.45A14.76,14.76,0,0,0,362,219.9l1.39.44c-.43.57-.9,1.16-1.32,1.65Zm-5.35,5.31c-.14.35-.28.7-.41,1h4.79v4.35h-1.3v-.49h-7v.51h-1.24v-4.37h3.5c.1-.33.18-.69.26-1h-2.71V224H362v3.29Zm3.08,2.14h-7v1.61h7Zm-6-3.12h4.85V225h-4.85Z"/>
      </g>
      <g>
        <rect class="cls-5" x="579.27" y="94.03" width="93.38" height="68.76"/>
        <path d="M672.15,94.53v67.76H579.77V94.53h92.38m1-1H578.77v69.76h94.38V93.53Z"/>
      </g>
      <g>
        <path d="M596.62,112.89c2.72-.53,5.53-1.11,6.21-1.27a2.8,2.8,0,0,0,.85-.29l.94.74c-.11.18-.29.45-.4.64a23.52,23.52,0,0,1-3.28,4.66l-1.11-.66a15.48,15.48,0,0,0,2.85-3.81c-.27,0-3.23.64-6.06,1.22v4.77c0,1.1.41,1.46,2.33,1.46a24.19,24.19,0,0,0,5-.48l0,1.37a33.74,33.74,0,0,1-5,.34c-3,0-3.54-.79-3.54-2.36v-4.83c-1.62.32-3,.61-3.68.75l-.24-1.34c.72-.08,2.22-.35,3.92-.67v-2.74a8.93,8.93,0,0,0-.1-1.47h1.51a10.28,10.28,0,0,0-.11,1.47Zm6.67-2a18.49,18.49,0,0,0-1.3-2.21l.85-.37c.4.58,1,1.55,1.32,2.19Zm1.31-3.22A22.2,22.2,0,0,1,606,109.8l-.87.38a15,15,0,0,0-1.32-2.19Z"/>
        <path d="M610.87,118.74c0,.82.34,1,1.12,1.19a15.22,15.22,0,0,0,2.11.13,25.7,25.7,0,0,0,5.48-.52V121a44.28,44.28,0,0,1-5.54.34,17.15,17.15,0,0,1-2.56-.16c-1.23-.23-1.92-.79-1.92-2.08v-8.81a6.88,6.88,0,0,0-.1-1.29H611a10,10,0,0,0-.08,1.29v3.62a42.81,42.81,0,0,0,6.08-2,11,11,0,0,0,1.41-.72l.56,1.28c-.44.19-1,.45-1.5.62a60.43,60.43,0,0,1-6.55,2.08Zm7.72-7.69a18.5,18.5,0,0,0-1.3-2.23l.85-.35a22.06,22.06,0,0,1,1.31,2.18Zm1.31-3.24a23.3,23.3,0,0,1,1.34,2.18l-.86.4a16.81,16.81,0,0,0-1.33-2.21Z"/>
        <path d="M635.13,111.37a10.82,10.82,0,0,0,1.36-.1v1.34l-1.31,0h-2.54c0,2.4.09,5.59.11,7.59,0,.83-.5,1.28-1.46,1.28s-1.78,0-2.56-.1l-.11-1.31a14.82,14.82,0,0,0,2.25.19c.47,0,.6-.21.6-.64,0-1.28,0-3.66-.05-5.81a22.34,22.34,0,0,1-7,6l-.91-1.05a20.26,20.26,0,0,0,7.35-6.16h-5.28c-.53,0-1,0-1.49,0v-1.36a11.57,11.57,0,0,0,1.47.1h5.83c0-.64,0-1.19,0-1.56a10,10,0,0,0-.15-1.34h1.49a10.05,10.05,0,0,0-.09,1.34l0,1.56Z"/>
        <path d="M639.51,109.27H641v4.91h5.47v-4.91H648V121h-1.48v-5.54H641V121h-1.49Z"/>
        <path d="M652,109.27h2.94c3.61,0,5.54,2.1,5.54,5.83S658.51,121,655,121h-3Zm2.82,10.52c2.76,0,4.13-1.73,4.13-4.69s-1.37-4.63-4.13-4.63h-1.33v9.32Z"/>
        <path d="M601.31,144.65h6.25v1.06H594v-1.06h6.08v-4h-5.36v-1h5.36v-2.15h-3.29v-.91a22,22,0,0,1-2.64,1.66,3.88,3.88,0,0,0-.73-.93,17.89,17.89,0,0,0,6.63-5.74h1.19a18.84,18.84,0,0,0,6.94,5.54,5.55,5.55,0,0,0-.77,1.05,20.44,20.44,0,0,1-2.67-1.66v1h-3.42v2.15h5.49v1h-5.49ZM597,141.13a10.08,10.08,0,0,1,1.52,2.85l-1,.46A11.3,11.3,0,0,0,596,141.5Zm7.64-4.68a18.6,18.6,0,0,1-3.94-3.71,17.59,17.59,0,0,1-3.75,3.71Zm-2,7.59a18.38,18.38,0,0,0,1.72-2.94l1.12.43a25.34,25.34,0,0,1-2,2.91Z"/>
        <path d="M610.57,132.32h7.49v1h-7.49Zm7.26,12.76c0,.5-.08.77-.44.95a5.58,5.58,0,0,1-1.78.16,3,3,0,0,0-.29-.92c.62,0,1.15,0,1.31,0s.23,0,.23-.2v-3.59h-1.14c-.78,0-1-.16-1-1v-1.25h-1v.1a2.85,2.85,0,0,1-1.41,2.69,2.37,2.37,0,0,0-.66-.56,2.2,2.2,0,0,0,1.3-2.17v-.06h-1.31v6.92h-.93v-7.81h7.07Zm-.62-7.63h-5.8v-3.2h5.8Zm-2.5,5.5v2.82h-.89V143h-1.41v-.83h3.78V143Zm1.43-7.87h-3.68v1.55h3.68Zm.43,5.66c.21,0,.24,0,.29-.09v-1.38h-1.33v1.23c0,.23,0,.24.27.24Zm7.39,5.49a9.19,9.19,0,0,0-.24-1.24l-5.29,1-.31-1.14,2.72-.42v-3.61h-2.29v-6h2.29v-3h1v3h2.44v6h-2.44v3.45l1.54-.24a14.89,14.89,0,0,0-.82-2.09l.92-.26A16.32,16.32,0,0,1,625,146Zm-4.45-6.48h1.4V135.8h-1.4Zm3.8-3.95h-1.47v3.95h1.47Z"/>
        <path d="M640.56,141.34a8.85,8.85,0,0,1-1.86,2.57c.45.85,1,1.32,1.58,1.32s.64-.39.72-1.83a2.73,2.73,0,0,0,.82.53c-.19,1.79-.54,2.32-1.6,2.32a2.72,2.72,0,0,1-2.32-1.65,11.4,11.4,0,0,1-2.79,1.6,6.09,6.09,0,0,0-.64-.75,10.55,10.55,0,0,0,3-1.76,15.23,15.23,0,0,1-.82-3h-2.5c0,.32-.06.62-.09.92a17.73,17.73,0,0,1,2.21,1.57l-.68.82a14,14,0,0,0-1.73-1.36,5.7,5.7,0,0,1-2.09,3.54,3.58,3.58,0,0,0-.72-.79c1.45-1,1.89-2.8,2.05-4.7H632v-.9l-.5.7c-.2-.51-.7-1.48-1.13-2.29v8h-1.07v-7.39a17.87,17.87,0,0,1-1.77,4.35,5.51,5.51,0,0,0-.59-1,18.65,18.65,0,0,0,2.24-6h-1.9v-1.09h2V131.6h1.07v3.46h1.73v1.09h-1.73v.72c.41.58,1.5,2.32,1.74,2.77l-.06.1h4.48a57.63,57.63,0,0,1-.51-8.12h1.07a52,52,0,0,0,.48,8.12h2.18a9,9,0,0,0-1.35-.93l.56-.58a8.37,8.37,0,0,1,1.7,1.15l-.34.36h1.32v1h-3.91a13.91,13.91,0,0,0,.58,2.2,7,7,0,0,0,1.26-2Zm-8.18-3.78c.33-.45.7-1,1.07-1.55a12.1,12.1,0,0,0-1.7-1.64l.5-.65.38.28a17.75,17.75,0,0,0,1-2.24l.93.37c-.42.79-.9,1.73-1.29,2.39a5.48,5.48,0,0,1,.68.7,20.72,20.72,0,0,0,1-1.87l.86.42a40,40,0,0,1-2.4,3.72l1.57-.09a8.19,8.19,0,0,0-.43-1l.73-.28a8.24,8.24,0,0,1,.9,2.31l-.79.33a4.47,4.47,0,0,0-.12-.54l-3.24.3-.17-.94Zm5.47-.16c.3-.4.64-.88,1-1.41a10.42,10.42,0,0,0-1.68-1.62l.5-.65c.11.09.24.17.36.28a16.59,16.59,0,0,0,1-2.24l.93.37c-.4.8-.91,1.73-1.31,2.37.25.26.51.5.7.72a18.25,18.25,0,0,0,1-1.87l.87.42c-.67,1.13-1.52,2.51-2.29,3.56l1.7-.11c-.15-.32-.31-.64-.47-.91l.74-.3a8.48,8.48,0,0,1,1,2.3l-.77.37a2.94,2.94,0,0,0-.19-.66c-1.2.13-2.34.21-3.35.31l-.17-.9Z"/>
        <path d="M645.8,137.45v8.78h-1.17V132.29h5.8v5.16Zm0-4.26v1.23h3.51v-1.23Zm3.51,3.38v-1.33H645.8v1.33Zm8.46,8.24c0,.64-.12,1-.56,1.2a5.71,5.71,0,0,1-2.09.21,4.56,4.56,0,0,0-.32-1.06,1.35,1.35,0,0,0-.16.27,5.67,5.67,0,0,1-3.48-2.4c-.46.9-1.47,1.8-3.6,2.45a4.61,4.61,0,0,0-.7-.8c2.25-.62,3.13-1.54,3.45-2.37H647v-.91h3.49v-1.25h-3.22v-.89H649a5.68,5.68,0,0,0-.71-1.3l.92-.31a5,5,0,0,1,.87,1.61h2.08a12,12,0,0,0,.77-1.64L654,138c-.27.44-.56.9-.82,1.29h1.89v.89h-3.5v1.25h3.77v.91H651.8a5,5,0,0,0,3.51,2.24,4.2,4.2,0,0,0-.47.53c.68,0,1.3,0,1.49,0s.27-.08.27-.31v-7.33h-4.77v-5.17h5.94ZM653,133.19v1.23h3.63v-1.23Zm3.63,3.41v-1.36H653v1.36Z"/>
      </g>
      <g>
        <rect class="cls-5" x="0.5" y="94.03" width="93.38" height="68.76"/>
        <path d="M93.38,94.53v67.76H1V94.53H93.38m1-1H0v69.76H94.38V93.53Z"/>
      </g>
      <g>
        <path d="M28.36,125.05c-.61,3.69-1.71,7.8-4.31,10.22a7.48,7.48,0,0,0-1-.87c2.48-2.24,3.49-6.16,3.92-9.54Zm4.85-3.2c.48,5.43,1.57,10.18,4.5,12.42a8.27,8.27,0,0,0-1.16.95c-2.81-2.4-3.93-6.93-4.45-12.12H26.58v-1.25Z"/>
        <path d="M52.89,130.93h-1.2v-.88H43a8.47,8.47,0,0,1-2.26,5.23,4.27,4.27,0,0,0-.93-.81c1.89-1.85,2.1-4.44,2.1-6.44v-3.58h11Zm1.2-9.35v1.12H40.34v-1.12Zm-11,4v2.5c0,.28,0,.59,0,.89h8.63v-3.39Z"/>
        <path d="M64.55,124v2.16h5.14v5.6c0,.69-.16,1-.69,1.24a9.46,9.46,0,0,1-2.8.21,5,5,0,0,0-.42-1.17c1.08,0,2,0,2.32,0s.36-.1.36-.31v-4.46H64.55v8H63.33v-8H59.67v6H58.48v-7.11h4.85V124H56.85v-1.17h6.47v-2.27h1.25v2.27h6.59V124Z"/>
      </g>
    </symbol>
  </defs>
  <g id="レイヤー_2" data-name="レイヤー 2">
    <g id="レイヤー_1-2" data-name="レイヤー 1">
      <use id="strategy_scheme" width="673.15" height="307.33" transform="scale(0.95)" xlink:href="#新規シンボル_8"/>
    </g>
  </g>
</svg>
